<?xml version="1.0" encoding="UTF-8" standalone="no"?>
<!-- Created with Inkscape (http://www.inkscape.org/) -->

<svg
   xmlns:dc="http://purl.org/dc/elements/1.1/"
   xmlns:cc="http://creativecommons.org/ns#"
   xmlns:rdf="http://www.w3.org/1999/02/22-rdf-syntax-ns#"
   xmlns:svg="http://www.w3.org/2000/svg"
   xmlns="http://www.w3.org/2000/svg"
   xmlns:sodipodi="http://sodipodi.sourceforge.net/DTD/sodipodi-0.dtd"
   xmlns:inkscape="http://www.inkscape.org/namespaces/inkscape"
   width="297mm"
   height="210mm"
   viewBox="0 0 1052.3622 744.09448"
   id="svg2"
   version="1.1"
   inkscape:version="0.91 r13725"
   sodipodi:docname="Background.svg">
  <defs
     id="defs4" />
  <sodipodi:namedview
     id="base"
     pagecolor="#ffffff"
     bordercolor="#666666"
     borderopacity="1.0"
     inkscape:pageopacity="0.0"
     inkscape:pageshadow="2"
     inkscape:zoom="0.35"
     inkscape:cx="509.0468"
     inkscape:cy="181.74075"
     inkscape:document-units="px"
     inkscape:current-layer="layer1"
     showgrid="false"
     inkscape:window-width="1360"
     inkscape:window-height="715"
     inkscape:window-x="-8"
     inkscape:window-y="-8"
     inkscape:window-maximized="1" />
  <metadata
     id="metadata7">
    <rdf:RDF>
      <cc:Work
         rdf:about="">
        <dc:format>image/svg+xml</dc:format>
        <dc:type
           rdf:resource="http://purl.org/dc/dcmitype/StillImage" />
        <dc:title></dc:title>
      </cc:Work>
    </rdf:RDF>
  </metadata>
  <g
     inkscape:label="Layer 1"
     inkscape:groupmode="layer"
     id="layer1"
     transform="translate(0,-308.26772)">
    <rect
       style="fill:#2f5456;fill-opacity:1;fill-rule:evenodd;stroke:#ffffff;stroke-width:4;stroke-miterlimit:4;stroke-dasharray:none;stroke-opacity:1"
       id="rect4136"
       width="942.85712"
       height="625.71429"
       x="51.428574"
       y="368.07648" />
    <rect
       style="fill:#a6b1b8;fill-opacity:1;fill-rule:evenodd;stroke:#000000;stroke-width:4;stroke-miterlimit:4;stroke-dasharray:none;stroke-opacity:1"
       id="rect4138"
       width="907.14288"
       height="592.85712"
       x="67.14286"
       y="383.79077" />
    <path
       style="fill:none;fill-rule:evenodd;stroke:#000000;stroke-width:10;stroke-linecap:butt;stroke-linejoin:miter;stroke-opacity:1;stroke-miterlimit:4;stroke-dasharray:none"
       d="m 65.714286,608.07649 385.714284,-1.42857 c 57.14286,58.57143 50,367.14285 50,367.14285"
       id="path4140"
       inkscape:connector-curvature="0" />
    <ellipse
       style="fill:#a7aeaf;fill-opacity:1;fill-rule:evenodd;stroke:#000000;stroke-width:10;stroke-miterlimit:4;stroke-dasharray:none;stroke-opacity:1"
       id="path4142"
       cx="432.85715"
       cy="637.36218"
       rx="12.857142"
       ry="12.142858" />
    <ellipse
       ry="12.142858"
       rx="12.857142"
       cy="904.50507"
       cx="472.85712"
       id="ellipse4144"
       style="fill:#a7aeaf;fill-opacity:1;fill-rule:evenodd;stroke:#000000;stroke-width:10;stroke-miterlimit:4;stroke-dasharray:none;stroke-opacity:1" />
    <ellipse
       style="fill:#a7aeaf;fill-opacity:1;fill-rule:evenodd;stroke:#000000;stroke-width:10;stroke-miterlimit:4;stroke-dasharray:none;stroke-opacity:1"
       id="ellipse4146"
       cx="305.71429"
       cy="634.50507"
       rx="12.857142"
       ry="12.142858" />
    <ellipse
       ry="12.142858"
       rx="12.857142"
       cy="771.64789"
       cx="465.71429"
       id="ellipse4148"
       style="fill:#a7aeaf;fill-opacity:1;fill-rule:evenodd;stroke:#000000;stroke-width:10;stroke-miterlimit:4;stroke-dasharray:none;stroke-opacity:1" />
    <path
       style="fill:none;fill-rule:evenodd;stroke:#000000;stroke-width:10;stroke-linecap:butt;stroke-linejoin:miter;stroke-opacity:1;stroke-miterlimit:4;stroke-dasharray:none"
       d="m 481.42857,690.93363 492.85714,0"
       id="path4150"
       inkscape:connector-curvature="0" />
    <path
       inkscape:connector-curvature="0"
       id="path4152"
       d="m 494.28571,790.93363 478.57143,0"
       style="fill:none;fill-rule:evenodd;stroke:#000000;stroke-width:9.85400677;stroke-linecap:butt;stroke-linejoin:miter;stroke-miterlimit:4;stroke-dasharray:none;stroke-opacity:1" />
    <path
       style="fill:none;fill-rule:evenodd;stroke:#000000;stroke-width:9.79500008;stroke-linecap:butt;stroke-linejoin:miter;stroke-miterlimit:4;stroke-dasharray:none;stroke-opacity:1"
       d="m 500,892.3622 472.85714,0"
       id="path4154"
       inkscape:connector-curvature="0" />
    <path
       style="fill:#a7aeaf;fill-opacity:1;fill-rule:evenodd;stroke:#a7bde5;stroke-width:0;stroke-miterlimit:4;stroke-dasharray:none;stroke-opacity:1"
       d="m 70.15177,485.90964 0,-179.76524 100.95011,-0.94904 c 55.52256,-0.52198 140.79098,-0.94905 189.48538,-0.94905 82.61202,0 88.66781,0.16726 90.51678,2.5 4.90872,6.19308 13.68296,25.8281 18.19787,40.72324 16.64366,54.90897 26.47032,157.25651 26.53979,276.41962 l 0.0244,41.78572 -212.85715,0 -212.85714,0 0,-179.76525 z m 414.18297,124.12412 c 6.01422,-4.2825 8.35484,-12.46309 5.62106,-19.64586 -5.38107,-14.1383 -24.80639,-15.83507 -32.719,-2.85794 -3.57212,5.85844 -3.54119,11.91061 0.0913,17.86857 5.4416,8.92527 17.96359,11.07446 27.00665,4.63523 l 1e-5,0 z m -7.14286,-132.85715 c 6.01422,-4.2825 8.35485,-12.46308 5.62106,-19.64585 -5.38107,-14.13831 -24.80638,-15.83508 -32.719,-2.85795 -3.57211,5.85845 -3.54118,11.91062 0.0913,17.86858 5.4416,8.92527 17.96358,11.07445 27.00664,4.63522 l 10e-6,0 z M 444.33474,342.8909 c 6.01422,-4.2825 8.35484,-12.46309 5.62106,-19.64585 -5.38107,-14.13831 -24.80639,-15.83508 -32.719,-2.85795 -3.57212,5.85844 -3.54119,11.91061 0.0913,17.86858 5.4416,8.92526 17.96359,11.07444 27.00665,4.63522 l 1e-5,0 z m -127.14286,-2.85714 c 6.01422,-4.2825 8.35485,-12.46309 5.62106,-19.64585 -5.38107,-14.13832 -24.80638,-15.83508 -32.719,-2.85795 -3.57211,5.85844 -3.54118,11.91061 0.0913,17.86858 5.4416,8.92526 17.96358,11.07444 27.00664,4.63522 l 10e-6,0 z"
       id="path4164"
       inkscape:connector-curvature="0"
       transform="translate(0,308.26772)" />
    <path
       style="fill:#a7aeaf;fill-opacity:1;fill-rule:evenodd;stroke:#a7bde5;stroke-width:0;stroke-miterlimit:4;stroke-dasharray:none;stroke-opacity:1"
       d="m 70.15177,485.84764 0,-179.82723 108.92857,-0.97999 c 59.91072,-0.53899 145.5368,-0.77745 190.28019,-0.5299 l 81.3516,0.45008 6.14375,11.42857 c 18.1524,33.76692 29.85318,98.16728 36.2078,199.28572 0.81473,12.96428 1.87305,52.01785 2.35183,86.78571 l 0.87052,63.21429 -213.06713,0 -213.06713,0 0,-179.82725 z m 410.82266,125.69138 c 11.05854,-5.02259 13.5105,-18.06616 5.09053,-27.07978 -14.11912,-15.11457 -39.6486,3.04459 -28.94858,20.59116 2.80319,4.59683 10.33783,9.13006 15.17825,9.13202 1.57143,6.2e-4 5.47734,-1.1889 8.6798,-2.6434 z m -7.14286,-132.85715 c 11.05854,-5.02258 13.5105,-18.06616 5.09053,-27.07977 -14.11912,-15.11457 -39.6486,3.04459 -28.94857,20.59116 2.80318,4.59683 10.33783,9.13005 15.17824,9.13201 1.57143,6.3e-4 5.47734,-1.1889 8.6798,-2.6434 z M 440.97443,344.39616 c 11.05854,-5.02258 13.5105,-18.06616 5.09053,-27.07978 -14.11912,-15.11457 -39.6486,3.0446 -28.94858,20.59116 2.80319,4.59683 10.33783,9.13006 15.17825,9.13201 1.57143,6.4e-4 5.47734,-1.18889 8.6798,-2.64339 z m -127.14286,-2.85714 c 11.05854,-5.02259 13.5105,-18.06617 5.09053,-27.07978 -14.11912,-15.11457 -39.6486,3.04459 -28.94857,20.59116 2.80318,4.59683 10.33783,9.13006 15.17824,9.13201 1.57143,6.4e-4 5.47734,-1.18889 8.6798,-2.64339 z"
       id="path4166"
       inkscape:connector-curvature="0"
       transform="translate(0,308.26772)" />
    <ellipse
       ry="12.142858"
       rx="12.857142"
       cy="635.5152"
       cx="171.364"
       id="ellipse4168"
       style="fill:#a7aeaf;fill-opacity:1;fill-rule:evenodd;stroke:#000000;stroke-width:10;stroke-miterlimit:4;stroke-dasharray:none;stroke-opacity:1" />
  </g>
</svg>
